Coordinates
version=1
nRows=11
nColumns=36
inDegrees=yes

Units are S.I. units (second, meters, Newtons, ...)
If the header above contains a line with 'inDegrees', this indicates whether rotational values are in degrees (yes) or radians (no).

endheader
time	pelvis_tilt	pelvis_list	pelvis_rotation	pelvis_tx	pelvis_ty	pelvis_tz	hip_flexion_r	hip_adduction_r	hip_rotation_r	knee_angle_r	knee_angle_r_beta	ankle_angle_r	subtalar_angle_r	mtp_angle_r	hip_flexion_l	hip_adduction_l	hip_rotation_l	knee_angle_l	knee_angle_l_beta	ankle_angle_l	subtalar_angle_l	mtp_angle_l	lumbar_extension	lumbar_bending	lumbar_rotation	arm_flex_r	arm_add_r	arm_rot_r	elbow_flex_r	pro_sup_r	arm_flex_l	arm_add_l	arm_rot_l	elbow_flex_l	pro_sup_l
      3.70000000	    -12.45444125	      2.23202147	    -16.30945778	      0.96945496	      0.82692208	      0.21188912	     34.90094150	     11.35811052	     -0.08982921	     47.85290201	      0.83519070	     25.52437256	     -5.31954032	     -7.49999987	     60.78383384	     -8.46043051	      3.58968559	     22.72600780	      0.39664366	      6.34443909	      3.92557996	     -7.49999987	      4.26597541	      5.77480355	    -11.02492381	     36.72486593	      3.75353774	     57.23393076	    104.25063651	    103.62897258	     51.38092562	      6.95683962	     68.73587108	    124.37337118	     98.51716557
      3.71666670	    -12.30054168	      2.05126995	    -16.28233843	      0.96887761	      0.82692892	      0.21202115	     35.63124824	     11.45031983	     -0.47126508	     49.57200208	      0.86519465	     25.78546134	     -5.82270690	     -7.49999987	     61.25275128	     -8.36361116	      3.86261998	     22.69538547	      0.39610920	      6.41654803	      3.71869469	     -7.49999987	      3.81024997	      5.83227302	    -11.17689894	     36.42111520	      3.76479690	     57.19070980	    103.98389991	    103.68814299	     51.61808251	      6.88441563	     68.37360529	    124.38737763	     98.55084821
      3.73333330	    -12.40296802	      1.92106595	    -16.35623542	      0.96427695	      0.82199723	      0.21551070	     37.00373479	     11.61997950	     -0.98843781	     51.81239714	      0.90429692	     26.21236695	     -5.62770394	     -7.49999987	     62.05066929	     -8.53852899	      4.32523535	     22.62647811	      0.39490654	      6.08161920	      3.07393938	     -7.49999987	      3.83097475	      5.71714553	    -11.18181992	     36.04289855	      4.35390490	     56.40418907	    103.90287162	    103.85727398	     51.58731082	      7.06638620	     68.28990357	    124.07582121	     98.64905924
      3.75000000	    -12.13879152	      1.43558595	    -16.41607024	      0.96428564	      0.81865023	      0.21539215	     37.59824732	     12.02087413	     -1.37184621	     53.45156255	      0.93290576	     26.24711966	     -5.86587079	     -7.49999987	     62.31525804	     -8.94733550	      4.69909113	     22.38808424	      0.39074578	      5.96381999	      3.15887495	     -7.49999987	      2.95020229	      6.07952523	    -11.18144320	     35.79498512	      4.38296952	     56.43196449	    103.84650571	    103.87891102	     51.23268732	      7.16093597	     68.38670323	    124.03013625	     98.65565830
      3.76666670	    -12.09770314	      1.29930104	    -16.42936927	      0.95990427	      0.81655778	      0.21854100	     38.67753321	     12.18452029	     -1.69680758	     55.33995544	      0.96586443	     26.52898367	     -5.87632095	     -7.49999987	     62.82069939	     -9.18847854	      5.29431996	     22.20731155	      0.38759070	      5.42432625	      2.42673292	     -7.49999987	      2.25900632	      5.85853889	    -11.22161524	     35.59539195	      4.92749572	     56.00798260	    103.90723802	    104.27641688	     51.33528167	      6.68747077	     68.45494495	    124.64414190	     98.06116552
      3.78333330	    -11.98553003	      1.07638477	    -16.63325921	      0.96023406	      0.81219850	      0.21859237	     39.35904729	     12.44836813	     -1.90420866	     56.73691652	      0.99024600	     26.74536530	     -5.67584756	     -7.49999987	     63.22916877	     -9.63419122	      5.70109074	     21.84969191	      0.38134906	      4.97493596	      2.08675677	     -7.49999987	      1.49251314	      5.91904951	    -11.23006648	     35.35093355	      5.01101634	     56.04410990	    104.02678643	    104.54235131	     50.97900399	      6.09418483	     68.71723490	    125.10130594	     98.11565091
      3.80000000	    -11.84485749	      0.80889004	    -16.74360010	      0.96068912	      0.80834547	      0.21835494	     39.84245050	     12.64826379	     -2.20450155	     57.87633084	      1.01013253	     26.97004909	     -5.76162237	     -7.49999987	     63.54446516	    -10.01962997	      6.10795425	     21.58383102	      0.37670892	      4.83912791	      2.18709405	     -7.49999987	      0.80478661	      6.05955913	    -11.34313330	     35.27124990	      5.36065910	     55.96876321	    104.24712864	    104.59738797	     50.77041822	      5.62164136	     69.03491496	    125.11779068	     98.13922917
      3.81666670	    -11.83675672	      0.70245515	    -16.76723121	      0.96046781	      0.80097494	      0.21845916	     40.78333122	     12.65641686	     -2.59696879	     59.54774394	      1.03930419	     27.56278755	     -5.54601059	     -7.49999987	     64.25722198	    -10.16178446	      6.43484106	     21.38526057	      0.37324321	      4.73513347	      2.37364931	     -7.49999987	      0.31250551	      5.97173935	    -11.56058448	     35.44987737	      6.07831532	     55.62791012	    104.65379274	    104.60860620	     51.12691690	      5.06313743	     69.20289428	    125.90316533	     98.09787844
      3.83333330	    -12.23373907	      0.73070655	    -16.76078662	      0.96087357	      0.79273785	      0.21785151	     42.10085309	     12.60174666	     -3.08156248	     61.24180756	      1.06887118	     28.59923709	     -4.80364986	     -7.49999987	     65.29561754	    -10.22449491	      6.64466065	     21.06851122	      0.36771489	      4.87011179	      2.65522909	     -7.49999987	      0.46265489	      6.04884623	    -11.92117561	     35.30897396	      6.35188355	     55.43517224	    105.61736770	    104.71226417	     51.20717816	      4.41871784	     69.41534921	    126.94666007	     98.08205924
      3.85000000	    -13.03284719	      0.82778170	    -16.71928809	      0.96095498	      0.78465991	      0.21797345	     43.66889157	     12.71323763	     -3.39794523	     62.78070534	      1.09573001	     29.75310312	     -4.38702117	     -7.49999987	     66.98412004	    -10.24358835	      6.81050092	     21.30652516	      0.37186902	      5.29150837	      2.84119882	     -7.49999987	      1.17480023	      6.07516790	    -11.70805359	     35.16997392	      6.18963658	     55.12267883	    106.76763139	    105.27803754	     51.23713371	      4.88667145	     69.48898588	    127.04333009	     98.01265080
      3.86666670	    -13.38186361	      0.64610085	    -16.65294654	      0.96140984	      0.78310895	      0.21644242	     44.52658934	     12.92365098	     -3.70260932	     63.86652396	      1.11468112	     30.57900783	     -4.31675201	     -7.49999987	     67.90080901	    -10.23377359	      6.98042060	     21.35942193	      0.37279224	      5.62339248	      3.17992359	     -7.49999987	      1.19277322	      6.36652656	    -11.70259723	     35.06701470	      5.80222320	     55.02980261	    107.41941865	    104.22476744	     50.90095344	      5.48587122	     69.63823069	    126.95649500	     97.25193063
